<?xml version="1.0" encoding="utf-8"?>
<!-- Generator: Adobe Illustrator 15.0.0, SVG Export Plug-In . SVG Version: 6.00 Build 0)  -->
<!DOCTYPE svg PUBLIC "-//W3C//DTD SVG 1.1//EN" "http://www.w3.org/Graphics/SVG/1.1/DTD/svg11.dtd">
<svg version="1.1" id="Layer_1" xmlns="http://www.w3.org/2000/svg" xmlns:xlink="http://www.w3.org/1999/xlink" x="0px" y="0px"
	 width="460px" height="600px" viewBox="0 0 460 600" style="enable-background:new 0 0 460 600;" xml:space="preserve">
<style type="text/css">
<![CDATA[
	.st0{font-family:'Rambla-Bold';}
	.st1{font-size:72.4155;}
	.st2{font-size:32.8364;}
	.st3{fill:#FFFFFF;}
]]>
</style>
<path class="st3" d="M279.8,281.7c-0.7-0.9-1.8-1.7-3.3-2.6c-1.5-0.9-2.7-1.9-3.8-3.1c-1-1.2-1.8-2.8-2.4-5
	c-0.3-1.1-0.5-7.2-0.7-18.3c0-3-0.7-5.6-2.1-8c-1.4-2.3-3.2-4.1-5.6-5.4c-2.4-1.3-5.1-1.9-8.2-1.9c-0.1,0-0.1,0-0.2,0v0h-48v0
	c-0.2,0-0.3,0-0.5,0c-4.7,0-8.5,1.4-11.3,4.1c-2.8,2.8-4.3,6.5-4.4,11.1c-0.1,7.5-0.2,12.2-0.3,14.1c-0.1,2-0.3,3.8-0.7,5.4
	c-0.4,1.7-1.1,3-2.2,4.1c-1,1.1-2.7,2.3-5.1,3.8c-1.9,1.2-2.9,3.1-2.9,5.6c0,1.7,0.3,3,1,3.7c0.7,0.8,1.8,1.7,3.4,2.7
	c1.6,1,2.9,2.1,3.9,3.2c1,1.1,1.7,2.8,2.2,5.1c0.2,0.9,0.4,2.9,0.5,6s0.2,7.2,0.3,12.3c0,3,0.7,5.7,2,8c1.3,2.3,3.2,4.1,5.5,5.4
	c2.4,1.3,5.1,1.9,8.2,1.9c0.5,0,0.9,0,1.4-0.1h46.1c0.4,0,0.8,0.1,1.3,0.1c4.8,0,8.6-1.4,11.4-4.2c2.9-2.8,4.3-6.5,4.4-11.1
	c0.1-4.9,0.2-9,0.3-12.2c0.1-3.2,0.3-5.7,0.8-7.3c0.4-1.6,1.2-3,2.2-4.1c1.1-1.1,2.8-2.4,5.1-3.8c1.9-1.2,2.9-3,2.9-5.5
	C280.9,283.9,280.6,282.6,279.8,281.7z M260.4,290.9c-1.3,1.9-2.2,4.1-2.7,6.7c-0.5,2.6-0.7,6.2-0.8,10.8c0,3.1-0.1,5.5-0.2,7.1
	c-0.1,1.6-0.4,2.9-0.8,3.7c-0.4,0.8-0.9,1.4-1.7,1.7c-0.6,0.2-1.4,0.5-2.5,0.6h-44.5c-1.1-0.2-2-0.4-2.5-0.6
	c-0.6-0.3-1.2-0.8-1.6-1.6c-0.5-0.8-0.8-2-0.9-3.6s-0.2-4-0.2-7.3c0-4.4-0.3-8-0.8-10.9c-0.5-2.8-1.5-5.2-2.8-7
	c-1.3-1.8-3.2-3.5-5.6-4.9c2.5-1.6,4.4-3.3,5.8-5.3c1.3-1.9,2.2-4.3,2.7-7.1c0.5-2.8,0.7-6.3,0.8-10.6c0.1-4.4,0.2-7.4,0.5-8.9
	c0.2-1.5,0.7-2.6,1.5-3.1c0.6-0.4,1.7-0.8,3.1-1h45c0.9,0.1,1.6,0.3,2.1,0.5c0.7,0.3,1.3,0.8,1.7,1.6c0.4,0.8,0.7,2,0.8,3.7
	c0.1,1.7,0.2,4.1,0.2,7.3c0,3.3,0.2,6.1,0.5,8.6c0.3,2.4,0.8,4.5,1.6,6.3c0.7,1.8,1.7,3.3,2.8,4.5c1.1,1.2,2.6,2.4,4.4,3.6
	C263.7,287.3,261.7,289,260.4,290.9z"/>
<text transform="matrix(1 0 0 1 -1.2915 385.6465)" class="st3 st0 st1">&lt;frontenders/&gt;</text>
<text transform="matrix(1 0 0 1 263.9922 423.667)" class="st3 st0 st2">VALENCIA</text>
</svg>
